<svg width="96" height="13.999999999999998" xmlns="http://www.w3.org/2000/svg">
 <!-- Created with SVG Editor - http://github.com/mzalive/SVG Editor/ -->

 <g>
  <title>background</title>
  <rect fill="transparent" id="canvas_background" height="16" width="98" y="-1" x="-1"/>
  <g display="none" overflow="visible" y="0" x="0" height="100%" width="100%" id="canvasGrid">
   <rect fill="url(#gridpattern)" stroke-width="0" y="0" x="0" height="100%" width="100%"/>
  </g>
 </g>
 <g>
  <title>Layer 1</title>
  <g id="svg_72">
   <path id="svg_56" d="m74.677994,6.352743c0.291977,-0.27686 0.395042,-0.68319 0.269112,-1.060909c-0.126244,-0.377719 -0.455055,-0.647355 -0.859024,-0.704576l-3.591682,-0.507768c-0.152969,-0.021675 -0.285149,-0.11502 -0.35347,-0.249982l-1.605743,-3.166255c-0.180305,-0.355756 -0.546242,-0.576839 -0.954063,-0.576839c-0.407532,0 -0.773468,0.221083 -0.953766,0.576839l-1.606049,3.166545c-0.068314,0.134961 -0.200798,0.228307 -0.35376,0.249982l-3.591694,0.507769c-0.403667,0.056932 -0.732773,0.326856 -0.859013,0.704575c-0.125946,0.37772 -0.022877,0.78405 0.269104,1.06091l2.598724,2.464571c0.110794,0.105194 0.161583,0.256629 0.135445,0.404595l-0.613068,3.480105c-0.054359,0.306339 0.028214,0.604295 0.231979,0.83925c0.316635,0.366159 0.869408,0.477713 1.311386,0.251718l3.212097,-1.64324c0.134254,-0.068492 0.303268,-0.067914 0.437225,0l3.212387,1.64324c0.156242,0.080051 0.322868,0.120512 0.49485,0.120512c0.313957,0 0.611588,-0.135829 0.816246,-0.37223c0.204056,-0.234955 0.286339,-0.53349 0.231972,-0.83925l-0.613365,-3.480105c-0.026138,-0.148255 0.024651,-0.299401 0.135445,-0.404595l2.598724,-2.464859z" fill="#e9ce93"/>
   <g transform="matrix(0.297031, 0, 0, 0.288998, 30.1394, -3.53104)" id="svg_57"/>
   <g transform="matrix(0.297031, 0, 0, 0.288998, 30.1394, -3.53104)" id="svg_58"/>
   <g transform="matrix(0.297031, 0, 0, 0.288998, 30.1394, -3.53104)" id="svg_59"/>
   <g transform="matrix(0.297031, 0, 0, 0.288998, 30.1394, -3.53104)" id="svg_60"/>
   <g transform="matrix(0.297031, 0, 0, 0.288998, 30.1394, -3.53104)" id="svg_61"/>
   <g transform="matrix(0.297031, 0, 0, 0.288998, 30.1394, -3.53104)" id="svg_62"/>
   <g transform="matrix(0.297031, 0, 0, 0.288998, 30.1394, -3.53104)" id="svg_63"/>
   <g transform="matrix(0.297031, 0, 0, 0.288998, 30.1394, -3.53104)" id="svg_64"/>
   <g transform="matrix(0.297031, 0, 0, 0.288998, 30.1394, -3.53104)" id="svg_65"/>
   <g transform="matrix(0.297031, 0, 0, 0.288998, 30.1394, -3.53104)" id="svg_66"/>
   <g transform="matrix(0.297031, 0, 0, 0.288998, 30.1394, -3.53104)" id="svg_67"/>
   <g transform="matrix(0.297031, 0, 0, 0.288998, 30.1394, -3.53104)" id="svg_68"/>
   <g transform="matrix(0.297031, 0, 0, 0.288998, 30.1394, -3.53104)" id="svg_69"/>
   <g transform="matrix(0.297031, 0, 0, 0.288998, 30.1394, -3.53104)" id="svg_70"/>
   <g transform="matrix(0.297031, 0, 0, 0.288998, 30.1394, -3.53104)" id="svg_71"/>
  </g>
  <g id="svg_93">
   <path id="svg_77" d="m95.48951,6.368312c0.311661,-0.270181 0.421677,-0.666708 0.287247,-1.035316c-0.13475,-0.368607 -0.485725,-0.631737 -0.916916,-0.687578l-3.833839,-0.495519c-0.163277,-0.021152 -0.304367,-0.112247 -0.377289,-0.243953l-1.713989,-3.089872c-0.192459,-0.347174 -0.583069,-0.562923 -1.018394,-0.562923c-0.43499,0 -0.8256,0.215749 -1.018051,0.562923l-1.71431,3.090154c-0.072929,0.131706 -0.214333,0.2228 -0.377609,0.243952l-3.833839,0.495519c-0.430878,0.055559 -0.782166,0.318971 -0.916908,0.687578c-0.134438,0.368608 -0.024422,0.765136 0.287239,1.035316l2.773911,2.405114c0.118263,0.102657 0.172485,0.250439 0.144577,0.394836l-0.654388,3.396152c-0.058022,0.298947 0.030113,0.589715 0.247612,0.819001c0.337982,0.357328 0.928017,0.466189 1.399796,0.245646l3.428635,-1.6036c0.143311,-0.066839 0.323708,-0.066275 0.466698,0l3.42894,1.6036c0.166779,0.078119 0.34465,0.117604 0.528221,0.117604c0.335129,0 0.652817,-0.132552 0.871262,-0.363251c0.217819,-0.229286 0.305641,-0.520618 0.24762,-0.819001l-0.654709,-3.396152c-0.027908,-0.14468 0.026321,-0.292179 0.144577,-0.394836l2.773911,-2.405396z" fill="#e6e6e6"/>
   <g transform="matrix(0.317055, 0, 0, 0.282026, 30.2202, -0.988081)" id="svg_78"/>
   <g transform="matrix(0.317055, 0, 0, 0.282026, 30.2202, -0.988081)" id="svg_79"/>
   <g transform="matrix(0.317055, 0, 0, 0.282026, 30.2202, -0.988081)" id="svg_80"/>
   <g transform="matrix(0.317055, 0, 0, 0.282026, 30.2202, -0.988081)" id="svg_81"/>
   <g transform="matrix(0.317055, 0, 0, 0.282026, 30.2202, -0.988081)" id="svg_82"/>
   <g transform="matrix(0.317055, 0, 0, 0.282026, 30.2202, -0.988081)" id="svg_83"/>
   <g transform="matrix(0.317055, 0, 0, 0.282026, 30.2202, -0.988081)" id="svg_84"/>
   <g transform="matrix(0.317055, 0, 0, 0.282026, 30.2202, -0.988081)" id="svg_85"/>
   <g transform="matrix(0.317055, 0, 0, 0.282026, 30.2202, -0.988081)" id="svg_86"/>
   <g transform="matrix(0.317055, 0, 0, 0.282026, 30.2202, -0.988081)" id="svg_87"/>
   <g transform="matrix(0.317055, 0, 0, 0.282026, 30.2202, -0.988081)" id="svg_88"/>
   <g transform="matrix(0.317055, 0, 0, 0.282026, 30.2202, -0.988081)" id="svg_89"/>
   <g transform="matrix(0.317055, 0, 0, 0.282026, 30.2202, -0.988081)" id="svg_90"/>
   <g transform="matrix(0.317055, 0, 0, 0.282026, 30.2202, -0.988081)" id="svg_91"/>
   <g transform="matrix(0.317055, 0, 0, 0.282026, 30.2202, -0.988081)" id="svg_92"/>
  </g>
  <g id="svg_110">
   <path id="svg_94" d="m14.678638,6.352743c0.291977,-0.27686 0.395042,-0.68319 0.269112,-1.060909c-0.126244,-0.377719 -0.455055,-0.647355 -0.859024,-0.704576l-3.591682,-0.507768c-0.152969,-0.021675 -0.285149,-0.11502 -0.35347,-0.249982l-1.605743,-3.166255c-0.180305,-0.355756 -0.546242,-0.576839 -0.954063,-0.576839c-0.407532,0 -0.773468,0.221083 -0.953766,0.576839l-1.606049,3.166545c-0.068314,0.134961 -0.200798,0.228307 -0.35376,0.249982l-3.591694,0.507769c-0.403667,0.056932 -0.732773,0.326856 -0.859013,0.704575c-0.125946,0.37772 -0.022877,0.78405 0.269104,1.06091l2.598724,2.464571c0.110794,0.105194 0.161583,0.256629 0.135445,0.404595l-0.613068,3.480105c-0.054359,0.306339 0.028214,0.604295 0.231979,0.83925c0.316635,0.366159 0.869408,0.477713 1.311386,0.251718l3.212097,-1.64324c0.134254,-0.068492 0.303268,-0.067914 0.437225,0l3.212387,1.64324c0.156242,0.080051 0.322868,0.120512 0.49485,0.120512c0.313957,0 0.611588,-0.135829 0.816246,-0.37223c0.204056,-0.234955 0.286339,-0.53349 0.231972,-0.83925l-0.613365,-3.480105c-0.026138,-0.148255 0.024651,-0.299401 0.135445,-0.404595l2.598724,-2.464859z" fill="#e9ce93"/>
   <g transform="matrix(0.297031, 0, 0, 0.288998, 30.1394, -3.53104)" id="svg_95"/>
   <g transform="matrix(0.297031, 0, 0, 0.288998, 30.1394, -3.53104)" id="svg_96"/>
   <g transform="matrix(0.297031, 0, 0, 0.288998, 30.1394, -3.53104)" id="svg_97"/>
   <g transform="matrix(0.297031, 0, 0, 0.288998, 30.1394, -3.53104)" id="svg_98"/>
   <g transform="matrix(0.297031, 0, 0, 0.288998, 30.1394, -3.53104)" id="svg_99"/>
   <g transform="matrix(0.297031, 0, 0, 0.288998, 30.1394, -3.53104)" id="svg_100"/>
   <g transform="matrix(0.297031, 0, 0, 0.288998, 30.1394, -3.53104)" id="svg_101"/>
   <g transform="matrix(0.297031, 0, 0, 0.288998, 30.1394, -3.53104)" id="svg_102"/>
   <g transform="matrix(0.297031, 0, 0, 0.288998, 30.1394, -3.53104)" id="svg_103"/>
   <g transform="matrix(0.297031, 0, 0, 0.288998, 30.1394, -3.53104)" id="svg_104"/>
   <g transform="matrix(0.297031, 0, 0, 0.288998, 30.1394, -3.53104)" id="svg_105"/>
   <g transform="matrix(0.297031, 0, 0, 0.288998, 30.1394, -3.53104)" id="svg_106"/>
   <g transform="matrix(0.297031, 0, 0, 0.288998, 30.1394, -3.53104)" id="svg_107"/>
   <g transform="matrix(0.297031, 0, 0, 0.288998, 30.1394, -3.53104)" id="svg_108"/>
   <g transform="matrix(0.297031, 0, 0, 0.288998, 30.1394, -3.53104)" id="svg_109"/>
  </g>
  <g id="svg_127">
   <path id="svg_111" d="m34.011768,6.352743c0.291977,-0.27686 0.395042,-0.68319 0.269112,-1.060909c-0.126244,-0.377719 -0.455055,-0.647355 -0.859024,-0.704576l-3.591684,-0.507768c-0.152969,-0.021675 -0.285149,-0.11502 -0.35347,-0.249983l-1.605743,-3.166255c-0.180305,-0.355756 -0.546242,-0.576839 -0.954063,-0.576839c-0.407532,0 -0.773468,0.221083 -0.953766,0.576839l-1.606049,3.166545c-0.068314,0.134962 -0.200798,0.228308 -0.35376,0.249982l-3.591694,0.507769c-0.403667,0.056932 -0.732773,0.326856 -0.859013,0.704575c-0.125946,0.37772 -0.022877,0.78405 0.269104,1.06091l2.598724,2.46457c0.110794,0.105194 0.161583,0.256629 0.135445,0.404595l-0.613068,3.480105c-0.054359,0.306339 0.028214,0.604295 0.231979,0.83925c0.316635,0.366159 0.869408,0.477713 1.311386,0.251718l3.212097,-1.64324c0.134254,-0.068492 0.303268,-0.067914 0.437225,0l3.212387,1.64324c0.156244,0.080051 0.32287,0.120512 0.494852,0.120512c0.313957,0 0.611588,-0.135829 0.816246,-0.37223c0.204056,-0.234955 0.286339,-0.53349 0.231972,-0.83925l-0.613365,-3.480105c-0.026138,-0.148255 0.024651,-0.299401 0.135445,-0.404595l2.598724,-2.464859z" fill="#e9ce93"/>
   <g transform="matrix(0.297031, 0, 0, 0.288998, 30.1394, -3.53104)" id="svg_112"/>
   <g transform="matrix(0.297031, 0, 0, 0.288998, 30.1394, -3.53104)" id="svg_113"/>
   <g transform="matrix(0.297031, 0, 0, 0.288998, 30.1394, -3.53104)" id="svg_114"/>
   <g transform="matrix(0.297031, 0, 0, 0.288998, 30.1394, -3.53104)" id="svg_115"/>
   <g transform="matrix(0.297031, 0, 0, 0.288998, 30.1394, -3.53104)" id="svg_116"/>
   <g transform="matrix(0.297031, 0, 0, 0.288998, 30.1394, -3.53104)" id="svg_117"/>
   <g transform="matrix(0.297031, 0, 0, 0.288998, 30.1394, -3.53104)" id="svg_118"/>
   <g transform="matrix(0.297031, 0, 0, 0.288998, 30.1394, -3.53104)" id="svg_119"/>
   <g transform="matrix(0.297031, 0, 0, 0.288998, 30.1394, -3.53104)" id="svg_120"/>
   <g transform="matrix(0.297031, 0, 0, 0.288998, 30.1394, -3.53104)" id="svg_121"/>
   <g transform="matrix(0.297031, 0, 0, 0.288998, 30.1394, -3.53104)" id="svg_122"/>
   <g transform="matrix(0.297031, 0, 0, 0.288998, 30.1394, -3.53104)" id="svg_123"/>
   <g transform="matrix(0.297031, 0, 0, 0.288998, 30.1394, -3.53104)" id="svg_124"/>
   <g transform="matrix(0.297031, 0, 0, 0.288998, 30.1394, -3.53104)" id="svg_125"/>
   <g transform="matrix(0.297031, 0, 0, 0.288998, 30.1394, -3.53104)" id="svg_126"/>
  </g>
  <g id="svg_144">
   <path id="svg_128" d="m54.344887,6.186078c0.291977,-0.27686 0.395042,-0.68319 0.269112,-1.060909c-0.126244,-0.377719 -0.455055,-0.647355 -0.859024,-0.704576l-3.591682,-0.507768c-0.152969,-0.021675 -0.285149,-0.11502 -0.35347,-0.249982l-1.605743,-3.166255c-0.180305,-0.355756 -0.546242,-0.576839 -0.954063,-0.576839c-0.407532,0 -0.773468,0.221083 -0.953766,0.576839l-1.606049,3.166545c-0.068314,0.134961 -0.200798,0.228307 -0.35376,0.249982l-3.591698,0.507768c-0.403664,0.056932 -0.732773,0.326856 -0.859009,0.704575c-0.125946,0.37772 -0.022881,0.78405 0.269104,1.06091l2.598724,2.464571c0.110794,0.105194 0.161583,0.256629 0.135445,0.404595l-0.613068,3.480105c-0.054359,0.306339 0.028214,0.604295 0.231979,0.83925c0.316635,0.366159 0.869408,0.477713 1.311386,0.251718l3.212097,-1.64324c0.134254,-0.068492 0.303268,-0.067914 0.437225,0l3.212387,1.64324c0.156242,0.080051 0.322868,0.120512 0.49485,0.120512c0.313957,0 0.611588,-0.135829 0.816246,-0.37223c0.204056,-0.234955 0.286339,-0.53349 0.231972,-0.83925l-0.613365,-3.480105c-0.026138,-0.148255 0.024651,-0.299401 0.135445,-0.404595l2.598724,-2.464859z" fill="#e9ce93"/>
   <g transform="matrix(0.297031, 0, 0, 0.288998, 30.1394, -3.53104)" id="svg_129"/>
   <g transform="matrix(0.297031, 0, 0, 0.288998, 30.1394, -3.53104)" id="svg_130"/>
   <g transform="matrix(0.297031, 0, 0, 0.288998, 30.1394, -3.53104)" id="svg_131"/>
   <g transform="matrix(0.297031, 0, 0, 0.288998, 30.1394, -3.53104)" id="svg_132"/>
   <g transform="matrix(0.297031, 0, 0, 0.288998, 30.1394, -3.53104)" id="svg_133"/>
   <g transform="matrix(0.297031, 0, 0, 0.288998, 30.1394, -3.53104)" id="svg_134"/>
   <g transform="matrix(0.297031, 0, 0, 0.288998, 30.1394, -3.53104)" id="svg_135"/>
   <g transform="matrix(0.297031, 0, 0, 0.288998, 30.1394, -3.53104)" id="svg_136"/>
   <g transform="matrix(0.297031, 0, 0, 0.288998, 30.1394, -3.53104)" id="svg_137"/>
   <g transform="matrix(0.297031, 0, 0, 0.288998, 30.1394, -3.53104)" id="svg_138"/>
   <g transform="matrix(0.297031, 0, 0, 0.288998, 30.1394, -3.53104)" id="svg_139"/>
   <g transform="matrix(0.297031, 0, 0, 0.288998, 30.1394, -3.53104)" id="svg_140"/>
   <g transform="matrix(0.297031, 0, 0, 0.288998, 30.1394, -3.53104)" id="svg_141"/>
   <g transform="matrix(0.297031, 0, 0, 0.288998, 30.1394, -3.53104)" id="svg_142"/>
   <g transform="matrix(0.297031, 0, 0, 0.288998, 30.1394, -3.53104)" id="svg_143"/>
  </g>
 </g>
</svg>